<?xml version="1.0" encoding="UTF-8" standalone="no"?>
<!DOCTYPE svg PUBLIC "-//W3C//DTD SVG 1.0//EN" "http://www.w3.org/TR/2001/PR-SVG-20010719/DTD/svg10.dtd">
<svg width="8cm" height="14cm" viewBox="438 -82 147 263" xmlns="http://www.w3.org/2000/svg" xmlns:xlink="http://www.w3.org/1999/xlink">
  <g>
    <rect style="fill: #ffffff" x="440" y="-80" width="144" height="260" rx="8" ry="8"/>
    <rect style="fill: none; fill-opacity:0; stroke-width: 2; stroke-linejoin: round; stroke: #7f7f7f" x="440" y="-80" width="144" height="260" rx="8" ry="8"/>
  </g>
  <text font-size="11.2889" style="fill: #000000;text-anchor:start;font-family:monospace;font-style:normal;font-weight:normal" x="520" y="36">
    <tspan x="520" y="36">LDR</tspan>
  </text>
  <g>
    <polyline style="fill: none; fill-opacity:0; stroke-width: 1; stroke: #000000" points="468,72 476,84 468,84 473.716,92.5736 "/>
    <polygon style="fill: #000000" points="475.38,95.0697 471.497,92.8509 473.716,92.5736 474.825,90.6321 "/>
    <polygon style="fill: none; fill-opacity:0; stroke-width: 1; stroke: #000000" points="475.38,95.0697 471.497,92.8509 473.716,92.5736 474.825,90.6321 "/>
  </g>
  <g>
    <g>
      <polygon style="fill: #ffffff" points="470,120 480,110 520,110 520,150 510,160 470,160 470,120 "/>
      <polygon style="fill: none; fill-opacity:0; stroke-width: 2; stroke: #7f7f7f" points="470,120 480,110 520,110 520,150 510,160 470,160 470,120 "/>
      <line style="fill: none; fill-opacity:0; stroke-width: 2; stroke: #7f7f7f" x1="470" y1="120" x2="510" y2="120"/>
      <line style="fill: none; fill-opacity:0; stroke-width: 2; stroke: #7f7f7f" x1="510" y1="120" x2="520" y2="110"/>
      <line style="fill: none; fill-opacity:0; stroke-width: 2; stroke: #7f7f7f" x1="510" y1="120" x2="510" y2="160"/>
      <text font-size="12.8" style="fill: #000000;text-anchor:start;font-family:sans-serif;font-style:normal;font-weight:normal" x="480" y="141.9">
        <tspan x="480" y="141.9"></tspan>
      </text>
      <line style="fill: none; fill-opacity:0; stroke-width: 1; stroke: #000000" x1="480" y1="144.95" x2="480" y2="144.95"/>
    </g>
    <text font-size="33.8667" style="fill: #ff0000;text-anchor:middle;font-family:monospace;font-style:normal;font-weight:700" x="492.17" y="150.58">
      <tspan x="492.17" y="150.58">?</tspan>
    </text>
  </g>
  <g>
    <line style="fill: none; fill-opacity:0; stroke-width: 2; stroke: #000000" x1="500" y1="54" x2="515" y2="54"/>
    <rect style="fill: #ffffff" x="515" y="44" width="30" height="20"/>
    <rect style="fill: none; fill-opacity:0; stroke-width: 2; stroke: #000000" x="515" y="44" width="30" height="20"/>
    <line style="fill: none; fill-opacity:0; stroke-width: 2; stroke: #000000" x1="545" y1="54" x2="560" y2="54"/>
  </g>
  <g>
    <line style="fill: none; fill-opacity:0; stroke-width: 2; stroke: #000000" x1="496" y1="-48.0218" x2="521" y2="-48.0218"/>
    <line style="fill: none; fill-opacity:0; stroke-width: 2; stroke: #000000" x1="521" y1="-59.4843" x2="521" y2="-36.5593"/>
    <line style="fill: none; fill-opacity:0; stroke-width: 2; stroke: #000000" x1="531" y1="-70.9468" x2="531" y2="-25.0968"/>
    <line style="fill: none; fill-opacity:0; stroke-width: 2; stroke: #000000" x1="536" y1="-59.4843" x2="546" y2="-59.4843"/>
    <line style="fill: none; fill-opacity:0; stroke-width: 2; stroke: #000000" x1="541" y1="-53.7531" x2="541" y2="-65.2156"/>
    <line style="fill: none; fill-opacity:0; stroke-width: 2; stroke: #000000" x1="531" y1="-48.0218" x2="556" y2="-48.0218"/>
  </g>
  <g>
    <line style="fill: none; fill-opacity:0; stroke-width: 2; stroke: #000000" x1="470" y1="-20" x2="470" y2="-8"/>
    <polyline style="fill: none; fill-opacity:0; stroke-width: 2; stroke: #000000" points="470,20 470,8 478,-8 "/>
    <text font-size="12.8" style="fill: #000000;text-anchor:middle;font-family:sans-serif;font-style:normal;font-weight:normal" x="448" y="4">
      <tspan x="448" y="4"></tspan>
    </text>
  </g>
  <g>
    <polyline style="fill: none; fill-opacity:0; stroke-width: 1; stroke: #000000" points="520,96 528,84 520,84 525.716,75.4264 "/>
    <polygon style="fill: #000000" points="527.38,72.9303 526.825,77.3679 525.716,75.4264 523.497,75.1491 "/>
    <polygon style="fill: none; fill-opacity:0; stroke-width: 1; stroke: #000000" points="527.38,72.9303 526.825,77.3679 525.716,75.4264 523.497,75.1491 "/>
  </g>
  <g>
    <text font-size="11.2889" style="fill: #ff0000;text-anchor:start;font-family:monospace;font-style:normal;font-weight:normal" x="540" y="0">
      <tspan x="540" y="0">I</tspan>
    </text>
    <g>
      <line style="fill: none; fill-opacity:0; stroke-width: 2; stroke: #ff0000" x1="552" y1="-20" x2="552" y2="10.2639"/>
      <polygon style="fill: #ff0000" points="552,17.7639 547,7.76393 552,10.2639 557,7.76393 "/>
      <polygon style="fill: none; fill-opacity:0; stroke-width: 2; stroke: #ff0000" points="552,17.7639 547,7.76393 552,10.2639 557,7.76393 "/>
    </g>
  </g>
  <polyline style="fill: none; fill-opacity:0; stroke-width: 2; stroke: #00ff00" points="440,-48 470,-48 470,-20 "/>
  <line style="fill: none; fill-opacity:0; stroke-width: 2; stroke: #00ff00" x1="470.041" y1="37.7588" x2="470" y2="20"/>
  <line style="fill: none; fill-opacity:0; stroke-width: 2; stroke: #00ff00" x1="440" y1="52" x2="457.116" y2="52.044"/>
  <g>
    <ellipse style="fill: #ffffff" cx="470.074" cy="52.044" rx="12.9576" ry="13.2814"/>
    <ellipse style="fill: none; fill-opacity:0; stroke-width: 2; stroke: #000000" cx="470.074" cy="52.044" rx="12.9576" ry="13.2814"/>
    <line style="fill: none; fill-opacity:0; stroke-width: 2; stroke: #000000" x1="460.744" y1="42.4814" x2="479.403" y2="61.6066"/>
    <line style="fill: none; fill-opacity:0; stroke-width: 2; stroke: #000000" x1="460.744" y1="61.6066" x2="479.403" y2="42.4814"/>
  </g>
  <polyline style="fill: none; fill-opacity:0; stroke-width: 2; stroke: #00ff00" points="496,-48.0218 492,-48.0218 492,54 500,54 "/>
  <polyline style="fill: none; fill-opacity:0; stroke-width: 2; stroke: #00ff00" points="556,-48.0218 568,-48.0218 568,54 560,54 "/>
</svg>
